# xmcd
#
# Track frame offsets:
#	150
#	8100
#	17694
#	26308
#	40784
#	49066
#	61584
#	69920
#	82627
#	94218
#	103974
#	117236
#	134415
#
# Disc length: 1955 seconds
#
# Revision: 0
# Processed by: cddbd v1.5.2PL0 Copyright (c) Steve Scherf et al.
# Submitted via: dBpowerAMP V4.0
#
DISCID=9607a10d
DTITLE=Andy Swan - Andy Swan's Ottawa
DYEAR=2007
DGENRE=alt. country
TTITLE0=if my daddy could see me now
TTITLE1=can i pay you with sunshine?
TTITLE2=brian jones
TTITLE3=maybe it's love
TTITLE4=in a shoebox, under the bed
TTITLE5=belt buckle
TTITLE6=no shirt, no shoes, no service
TTITLE7=the truth about thieves
TTITLE8=you got the diamonds (I got the shaft)
TTITLE9=starfucker
TTITLE10=the great depression
TTITLE11=the sound of snowflakes falling
TTITLE12=down and dirty in the streets
EXTD=
EXTT0=
EXTT1=
EXTT2=
EXTT3=
EXTT4=
EXTT5=
EXTT6=
EXTT7=
EXTT8=
EXTT9=
EXTT10=
EXTT11=
EXTT12=
PLAYORDER=
